<svg id="logo"  xmlns="http://www.w3.org/2000/svg" viewBox="0 0 779.9 199">
  <style type="text/css">

	.st0{fill:none;stroke:#000000;stroke-width:10;stroke-miterlimit:10;}
	.st1{stroke:#000000;stroke-width:2;stroke-miterlimit:10;}
	.st2{fill:#000;}
  </style>
  <rect x="3.9" y="5" class="st0" width="772.1" height="189"/>
  <path class="st2" d="M633.7 29h18.1v67h0.6c3.7-5.4 7.4-10.3 10.9-14.8L705.6 29h23l-50.6 59.8 54.6 81.2h-21.4L665 100.8l-13.3 15.5V170h-18.1V29z"/>
  <path class="st2" d="M479.3 170V30h18.9l44.9 70.8c10.4 16.4 18.5 31.2 25.2 45.5l0.4-0.2c-1.7-18.7-2.1-35.7-2.1-57.5V30h17v140h-17.4l-44.5-71c-9.8-15.6-19.1-31.6-26.2-46.7l-0.6 0.2c1 17.7 1.5 34.5 1.5 57.7V170H479.3z"/>
  <path class="st2" d="M197.4 30h18.1v125h60.2v15h-78.2V30z"/>
  <path class="st2" d="M59 31.6c7.9-1.7 20.3-2.9 32.9-2.9 18 0 29.6 3.1 38.3 10.1 7.2 5.4 11.6 13.6 11.6 24.5 0 13.4-8.9 25.2-23.6 30.5v0.4c13.2 3.3 28.8 14.2 28.8 34.9 0 12-4.8 21-11.8 27.8 -9.7 8.9-25.4 13-48.2 13 -12.4 0-21.9-0.8-27.9-1.7V31.6zM77.1 89h16.4c19.1 0 30.3-9.9 30.3-23.4 0-16.4-12.5-22.8-30.7-22.8 -8.3 0-13.1 0.6-16 1.2V89zM77.1 156.2c3.5 0.6 8.7 0.8 15.2 0.8 18.7 0 35.9-6.8 35.9-27.1 0-19-16.4-26.9-36.1-26.9H77.1V156.2z"/>
  <path class="st1" d="M429.1 155v14H326.8v-14H429.1z"/>
</svg>
