<?xml version="1.0" encoding="utf-8"?>
<!-- Generator: Adobe Illustrator 22.0.1, SVG Export Plug-In . SVG Version: 6.00 Build 0)  -->
<svg version="1.1" id="Layer_1" xmlns="http://www.w3.org/2000/svg" xmlns:xlink="http://www.w3.org/1999/xlink" x="0px" y="0px"
	 viewBox="0 0 1325 207" style="enable-background:new 0 0 1325 207;" xml:space="preserve">
<style type="text/css">
	.st0{fill:none;stroke:#000000;stroke-width:10;stroke-miterlimit:10;}
	.st1{stroke:#231F20;stroke-width:2;stroke-miterlimit:10;}
</style>
<rect x="5" y="5" class="st0" width="1315" height="197"/>
<path d="M1203,119v-17l62-0.1v54.7c-9.5,7.6-19.4,13.4-29.5,17.3c-10.1,3.9-20.5,5.8-31.2,5.8c-14.4,0-27.5-3.1-39.3-9.3
	s-20.6-15.2-26.6-26.9s-9-24.8-9-39.3c0-14.3,3-27.7,9-40.2c6-12.4,14.5-21.7,25.7-27.7s24.1-9.1,38.7-9.1c10.6,0,20.2,1.7,28.8,5.2
	c8.6,3.5,15.3,8.3,20.1,14.4c4.9,6.2,8.6,14.2,11.1,24.1l-17.5,4.8c-2.2-7.5-4.9-13.4-8.2-17.7c-3.3-4.3-7.9-7.7-14-10.3
	s-12.8-3.9-20.2-3.9c-8.9,0-16.5,1.4-23,4.1c-6.5,2.7-11.7,6.3-15.7,10.7s-7,9.3-9.2,14.6c-3.7,9.1-5.6,19-5.6,29.7
	c0,13.1,2.2,24.1,6.8,33c4.5,8.9,11,15.4,19.6,19.7s17.7,6.4,27.4,6.4c8.4,0,16.6-1.6,24.6-4.9c8-3.3,14.1-6.7,18.2-10.4V119H1203z"
	/>
<path d="M962,177V30h19.3l78.7,115.4V30h19v147h-19.3L981,61.5V177H962z"/>
<path d="M892,177V30h20v147H892z"/>
<path class="st1" d="M503,162v14H401v-14H503z"/>
<path d="M60,177V30h55.2c11.2,0,20.2,1.5,27,4.5s12.1,7.6,15.9,13.7c3.8,6.2,5.8,12.7,5.8,19.4c0,6.3-1.7,12.2-5.1,17.7
	c-3.4,5.5-8.6,10-15.4,13.4c8.9,2.6,15.7,7.1,20.5,13.3c4.8,6.3,7.2,13.7,7.2,22.3c0,6.9-1.5,13.3-4.4,19.2s-6.5,10.5-10.8,13.7
	s-9.6,5.6-16.1,7.3c-6.5,1.6-14.4,2.5-23.7,2.5H60z M79,91h32.2c8.7,0,15-0.6,18.8-1.7c5-1.5,8.8-4,11.3-7.4s3.8-7.8,3.8-13
	c0-4.9-1.2-9.3-3.6-13.1c-2.4-3.8-5.8-6.3-10.2-7.7c-4.4-1.4-12-2.1-22.7-2.1H79V91z M79,160h36.9c6.3,0,10.8-0.2,13.4-0.7
	c4.5-0.8,8.3-2.2,11.3-4c3-1.9,5.5-4.6,7.5-8.2c2-3.6,2.9-7.8,2.9-12.5c0-5.5-1.4-10.3-4.3-14.4c-2.8-4.1-6.8-6.9-11.8-8.6
	s-12.3-2.5-21.7-2.5H79V160z"/>
<path d="M221,177V30h65.2c13.1,0,23.1,1.3,29.9,4c6.8,2.6,12.3,7.3,16.3,14c4.1,6.7,6.1,14.1,6.1,22.2c0,10.4-3.4,19.2-10.1,26.4
	c-6.8,7.2-17.2,11.7-31.3,13.6c5.1,2.5,9.1,4.9,11.7,7.3c5.7,5.2,11.1,11.7,16.1,19.6l25.6,40H329l-20-30.5
	c-5.8-8.8-10.7-15.5-14.4-20.2c-3.8-4.7-7.2-7.9-10.2-9.8s-6-3.2-9.1-3.9c-2.3-0.5-6-0.7-11.1-0.7H241v65H221z M241,94h42.1
	c9,0,16-0.9,21-2.8c5.1-1.9,8.9-4.8,11.5-8.9s3.9-8.5,3.9-13.3c0-7-2.5-12.8-7.6-17.3s-13.1-6.8-24.1-6.8H241V94z"/>
<path d="M554,177V30h18.3L651,145.4V30h19v147h-18.3L573,61.5V177H554z"/>
<path d="M720,177V30h50.6c11.4,0,20.2,0.7,26.2,2.1c8.4,1.9,15.6,5.4,21.6,10.5c7.8,6.6,13.6,14.9,17.4,25.1
	c3.8,10.2,5.8,21.8,5.8,34.9c0,11.2-1.3,21.1-3.9,29.7s-6,15.8-10,21.4c-4.1,5.6-8.5,10.1-13.4,13.3c-4.8,3.2-10.7,5.7-17.5,7.4
	c-6.9,1.7-14.7,2.5-23.6,2.5H720V177z M740,160h31.6c9.8,0,17.4-0.9,23-2.7c5.5-1.8,10-4.4,13.3-7.7c4.6-4.6,8.3-10.9,10.8-18.7
	c2.6-7.8,3.9-17.3,3.9-28.5c0-15.5-2.5-27.4-7.6-35.7S803.7,52.8,796.5,50c-5.2-2-13.7-3-25.3-3H740V160z"/>
</svg>
