<?xml version="1.0" encoding="utf-8"?>
<!-- Generator: Adobe Illustrator 22.0.1, SVG Export Plug-In . SVG Version: 6.00 Build 0)  -->
<svg version="1.1" id="Layer_1" xmlns="http://www.w3.org/2000/svg" xmlns:xlink="http://www.w3.org/1999/xlink" x="0px" y="0px"
	 viewBox="0 0 418.1 419.2" style="enable-background:new 0 0 418.1 419.2;" xml:space="preserve">
<style type="text/css">
	.st0{fill:#FFFFFF;}
</style>
<path id="social" class="st0" d="M418.2,23v373.3c0,12.8-10.1,22.9-22.9,22.9H288.6V257.1h53.9l8-62.9h-62.4v-40.5
	c0-18.7,5.3-30.9,31.5-30.9h33.5V66.3c-5.9-1.1-25.6-2.7-48.5-2.7c-48,0-81.1,29.3-81.1,83.2v46.3h-54.4V256H223v161.6H23
	c-12.8,0-22.9-10.1-22.9-22.9V23C0.1,10.2,10.2,0.1,23,0.1h372.3C408,0,418.2,10.2,418.2,23z"/>
</svg>
