<?xml version="1.0" encoding="utf-8"?>
<!-- Generator: Adobe Illustrator 22.0.1, SVG Export Plug-In . SVG Version: 6.00 Build 0)  -->
<svg version="1.1" id="Layer_1" xmlns="http://www.w3.org/2000/svg" xmlns:xlink="http://www.w3.org/1999/xlink" x="0px" y="0px"
	 viewBox="0 0 418.1 419.2" style="enable-background:new 0 0 418.1 419.2;" xml:space="preserve">
<style type="text/css">
	.st0{fill:#FFFFFF;}
</style>
<path id="social" class="st0" d="M290.3,112.8c0,9.1,7.5,16,16,16h48.1c9.1,0,16-7.5,16-16V64.7c0-9.1-7.5-16-16-16h-48.1
	c-9.1,0-16,7.5-16,16V112.8z M209.1,128.9c-44.3,0-80.6,35.8-80.6,80.7c0,44.4,35.8,80.7,80.6,80.7c44.3,0,80.6-36.4,80.6-80.7
	S253.4,128.9,209.1,128.9z M80.9,209.6c0-11.2,1.6-21.9,4.3-32.1H48.9V355c0,9.1,7.5,16,16,16h290c9.1,0,16-7.5,16-16V177.5h-0.5
	h-36.3c2.7,10.2,4.3,20.8,4.3,32.1c0,71.1-57.7,128.9-128.7,128.9C138.6,338.5,80.9,280.7,80.9,209.6z M-0.2,371.1v-323
	C-0.2,21.4,21.2,0,47.9,0h322C396.6,0,418,21.4,418,48.1v322.4c0.6,26.7-20.8,48.7-47.5,48.7H47.8C21.1,419.2-0.2,397.3-0.2,371.1z"
	/>
</svg>
