<svg xmlns="http://www.w3.org/2000/svg" viewBox="270.9 70.4 418.1 419.2">
        <path id="social" d="M561.2 183.2c0 9.1 7.5 16 16 16h48.1c9.1 0 16-7.5 16-16v-48.1c0-9.1-7.5-16-16-16h-48.1c-9.1 0-16 7.5-16 16V183.2zM480 199.3c-44.3 0-80.6 35.8-80.6 80.7 0 44.4 35.8 80.7 80.6 80.7 44.3 0 80.6-36.4 80.6-80.7S524.3 199.3 480 199.3zM351.8 280c0-11.2 1.6-21.9 4.3-32.1h-36.3v177.5c0 9.1 7.5 16 16 16h290c9.1 0 16-7.5 16-16V247.9h-0.5H605c2.7 10.2 4.3 20.8 4.3 32.1 0 71.1-57.7 128.9-128.7 128.9C409.5 408.9 351.8 351.1 351.8 280zM270.7 441.5v-323c0-26.7 21.4-48.1 48.1-48.1h322c26.7 0 48.1 21.4 48.1 48.1v322.4c0.6 26.7-20.8 48.7-47.5 48.7H318.7C292 489.6 270.7 467.7 270.7 441.5z"/>
</svg>
