<?xml version="1.0" encoding="utf-8"?>
<!-- Generator: Adobe Illustrator 22.0.1, SVG Export Plug-In . SVG Version: 6.00 Build 0)  -->
<svg version="1.1" id="Layer_1" xmlns="http://www.w3.org/2000/svg" xmlns:xlink="http://www.w3.org/1999/xlink" x="0px" y="0px"
	 viewBox="0 0 1516 207" style="enable-background:new 0 0 1516 207;" xml:space="preserve">
<style type="text/css">
	.st0{fill:none;stroke:#000000;stroke-width:10;stroke-miterlimit:10;}
	.st1{fill:#231F20;stroke:#231F20;stroke-width:2;stroke-miterlimit:10;}
</style>
<rect x="5" y="5" class="st0" width="1506" height="197"/>
<g>
	<path d="M1393.6,118.9v-17.3l62.5-0.1v54.7c-9.6,7.6-19.5,13.4-29.7,17.3c-10.2,3.9-20.7,5.8-31.4,5.8c-14.5,0-27.6-3.1-39.5-9.3
		c-11.8-6.2-20.8-15.2-26.8-26.9c-6-11.7-9.1-24.8-9.1-39.3c0-14.3,3-27.7,9-40.2c6-12.4,14.6-21.7,25.9-27.7s24.2-9.1,38.9-9.1
		c10.7,0,20.3,1.7,28.9,5.2c8.6,3.5,15.4,8.3,20.3,14.4c4.9,6.2,8.6,14.2,11.2,24.1l-17.6,4.8c-2.2-7.5-5-13.4-8.2-17.7
		c-3.3-4.3-8-7.7-14.1-10.3c-6.1-2.6-12.9-3.9-20.3-3.9c-8.9,0-16.6,1.4-23.1,4.1c-6.5,2.7-11.8,6.3-15.7,10.7
		c-4,4.4-7.1,9.3-9.3,14.6c-3.8,9.1-5.6,19-5.6,29.7c0,13.1,2.3,24.1,6.8,33c4.5,8.9,11.1,15.4,19.8,19.7c8.7,4.3,17.8,6.4,27.6,6.4
		c8.4,0,16.7-1.6,24.7-4.9c8-3.3,14.1-6.7,18.3-10.4v-27.5H1393.6z"/>
	<path d="M1153.4,176.8V29.3h20l77.5,115.8V29.3h18.7v147.5h-20l-77.5-115.9v115.9H1153.4z"/>
	<path d="M1083.5,176.8V29.3h19.5v147.5H1083.5z"/>
	<path d="M964.7,176.8V46.7h-48.6V29.3H1033v17.4h-48.8v130.1H964.7z"/>
	<path d="M756,176.8V29.3h106.6v17.4h-87.1v45.2H857v17.3h-81.6v50.2H866v17.4H756z"/>
	<path d="M586.2,176.8V29.3h19.5v73.1l73.2-73.1h26.5L643.5,89l64.6,87.7h-25.8l-52.5-74.6l-24.1,23.5v51.1H586.2z"/>
	<path class="st1" d="M355,162v14H253v-14H355z"/>
	<path d="M60.9,176.8V29.3h29.4l34.9,104.4c3.2,9.7,5.6,17,7,21.8c1.7-5.4,4.3-13.2,7.8-23.6l35.3-102.6h26.3v147.5h-18.8V53.3
		l-42.8,123.4h-17.6L79.7,51.2v125.5H60.9z"/>
</g>
<path d="M406.3,176.8V29.3h65.4c13.1,0,23.1,1.3,30,4c6.8,2.6,12.3,7.3,16.4,14c4.1,6.7,6.1,14.1,6.1,22.2
	c0,10.5-3.4,19.3-10.2,26.5c-6.8,7.2-17.2,11.7-31.4,13.7c5.2,2.5,9.1,4.9,11.8,7.3c5.7,5.2,11.1,11.8,16.2,19.6l25.6,40.1h-24.5
	l-19.5-30.7c-5.7-8.9-10.4-15.6-14.1-20.3c-3.7-4.7-7-8-9.9-9.9c-2.9-1.9-5.9-3.2-8.9-3.9c-2.2-0.5-5.8-0.7-10.9-0.7h-22.6v65.5
	H406.3z M425.8,94.4h41.9c8.9,0,15.9-0.9,20.9-2.8c5-1.8,8.9-4.8,11.5-8.9c2.6-4.1,3.9-8.5,3.9-13.2c0-7-2.5-12.7-7.6-17.2
	c-5.1-4.5-13.1-6.7-24-6.7h-46.7V94.4z"/>
</svg>
