<?xml version="1.0" encoding="utf-8"?>
<!-- Generator: Adobe Illustrator 22.0.1, SVG Export Plug-In . SVG Version: 6.00 Build 0)  -->
<svg version="1.1" id="Layer_1" xmlns="http://www.w3.org/2000/svg" xmlns:xlink="http://www.w3.org/1999/xlink" x="0px" y="0px"
	 viewBox="0 0 1115 207" style="enable-background:new 0 0 1115 207;" xml:space="preserve">
<style type="text/css">
	.st0{fill:none;stroke:#000000;stroke-width:10;stroke-miterlimit:10;}
	.st1{fill:#231F20;stroke:#231F20;stroke-width:2;stroke-miterlimit:10;}
</style>
<rect x="5" y="5" class="st0" width="1105" height="197"/>
<g>
	<path d="M932,177V29h51c11.5,0,20.3,0.7,26.3,2.1c8.5,2,15.7,5.5,21.7,10.6c7.8,6.6,13.6,15,17.5,25.3s5.8,22,5.8,35.2
		c0,11.2-1.3,21.2-3.9,29.9s-6,15.9-10.1,21.6c-4.1,5.7-8.6,10.2-13.5,13.4c-4.9,3.3-10.8,5.7-17.7,7.4s-14.8,2.5-23.8,2.5L932,177
		L932,177z M952,160h31.6c9.8,0,17.4-0.9,23-2.7c5.5-1.8,10-4.4,13.3-7.7c4.6-4.6,8.3-10.9,10.8-18.7c2.6-7.8,3.9-17.3,3.9-28.5
		c0-15.5-2.5-27.4-7.6-35.7s-11.3-13.9-18.5-16.7c-5.2-2-13.7-3-25.3-3H952V160z"/>
	<path d="M740.4,105.1c0-24.6,6.6-43.8,19.8-57.8c13.2-13.9,30.3-20.9,51.1-20.9c13.7,0,26,3.3,37,9.8s19.4,15.7,25.1,27.3
		c5.8,11.7,8.6,24.9,8.6,39.8c0,15-3,28.5-9.1,40.3c-6.1,11.9-14.7,20.8-25.8,26.9c-11.1,6.1-23.1,9.1-36,9.1
		c-13.9,0-26.4-3.4-37.4-10.1c-11-6.7-19.3-15.9-25-27.6C743.2,130.4,740.4,118.1,740.4,105.1z M760.6,105.4
		c0,17.9,4.8,31.9,14.4,42.2c9.6,10.3,21.6,15.4,36.1,15.4c14.8,0,26.9-5.2,36.4-15.6c9.5-10.4,14.3-25.1,14.3-44.2
		c0-12.1-2-22.6-6.1-31.6s-10-16-17.9-20.9c-7.9-5-16.7-7.4-26.4-7.4c-13.9,0-25.8,4.8-35.8,14.3S760.6,83.1,760.6,105.4z"/>
	<path d="M573,177V29h20v61h77V29h20v148h-20v-70h-77v70H573z"/>
	<path d="M454,177V46h-48V29h117v17h-49v131H454z"/>
	<path class="st1" d="M355,162v14H253v-14H355z"/>
	<path d="M60,177V29h29.5l35.3,104.8c3.3,9.8,5.6,17.1,7.1,21.9c1.7-5.4,4.3-13.3,7.9-23.7l35.7-103H202v148h-19V53.1L139.7,177
		h-17.6L79,51v126H60z"/>
</g>
</svg>
