<?xml version="1.0" encoding="utf-8"?>
<!-- Generator: Adobe Illustrator 22.0.1, SVG Export Plug-In . SVG Version: 6.00 Build 0)  -->
<svg version="1.1" id="Layer_1" xmlns="http://www.w3.org/2000/svg" xmlns:xlink="http://www.w3.org/1999/xlink" x="0px" y="0px"
	 viewBox="0 0 1648 207" style="enable-background:new 0 0 1648 207;" xml:space="preserve">
<style type="text/css">
	.st0{fill:none;stroke:#000000;stroke-width:10;stroke-miterlimit:10;}
	.st1{stroke:#000000;stroke-width:2;stroke-miterlimit:10;}
</style>
<rect x="5" y="5" class="st0" width="1638" height="197"/>
<g>
	<path d="M1095,178V47h-48V30h117v17h-49v131H1095z"/>
	<path d="M1282.4,106.1c0-24.6,6.6-43.8,19.8-57.8c13.2-13.9,30.3-20.9,51.1-20.9c13.7,0,26,3.3,37,9.8s19.4,15.7,25.1,27.3
		c5.8,11.7,8.6,24.9,8.6,39.8c0,15-3,28.5-9.1,40.3c-6.1,11.9-14.7,20.8-25.8,26.9c-11.1,6.1-23.1,9.1-36,9.1
		c-13.9,0-26.4-3.4-37.4-10.1c-11-6.7-19.3-15.9-25-27.6C1285.2,131.4,1282.4,119.1,1282.4,106.1z M1302.6,106.4
		c0,17.9,4.8,31.9,14.4,42.2s21.6,15.4,36.1,15.4c14.8,0,26.9-5.2,36.4-15.6c9.5-10.4,14.3-25.1,14.3-44.2c0-12.1-2-22.6-6.1-31.6
		s-10-16-17.9-20.9c-7.9-5-16.7-7.4-26.4-7.4c-13.9,0-25.8,4.8-35.8,14.3S1302.6,84.1,1302.6,106.4z"/>
	<path d="M537,177V29h51c11.5,0,20.3,0.7,26.3,2.1c8.5,2,15.7,5.5,21.7,10.6c7.8,6.6,13.6,15,17.5,25.3s5.8,22,5.8,35.2
		c0,11.2-1.3,21.2-3.9,29.9c-2.6,8.7-6,15.9-10.1,21.6c-4.1,5.7-8.6,10.2-13.5,13.4c-4.9,3.3-10.8,5.7-17.7,7.4s-14.8,2.5-23.8,2.5
		L537,177L537,177z M557,160h31.6c9.8,0,17.4-0.9,23-2.7c5.5-1.8,10-4.4,13.3-7.7c4.6-4.6,8.3-10.9,10.8-18.7
		c2.6-7.8,3.9-17.3,3.9-28.5c0-15.5-2.5-27.4-7.6-35.7S620.7,52.8,613.5,50c-5.2-2-13.7-3-25.3-3H557V160z"/>
	<path class="st1" d="M485,162v14H383v-14H485z"/>
	<path d="M60,177V29h53.4c9.4,0,16.6,0.5,21.5,1.4c6.9,1.2,12.8,3.5,17.5,6.9c4.7,3.4,8.5,8.2,11.3,14.3c2.9,6.1,4.3,12.9,4.3,20.2
		c0,12.6-3.8,23.3-11.5,32C148.9,112.6,135,117,115,117H79.1v60H60z M78.1,99h36.6c12.1,0,20.7-2.4,25.8-7.1s7.6-11.4,7.6-19.9
		c0-6.2-1.5-11.5-4.5-15.9s-6.9-7.3-11.8-8.7c-3.2-0.9-9-1.3-17.5-1.3H78.1V99z"/>
	<path d="M218,177V30h60.9c12.2,0,21.5,1.3,27.9,4c6.4,2.6,11.5,7.3,15.3,14s5.7,14.1,5.7,22.2c0,10.4-3.2,19.2-9.5,26.4
		c-6.3,7.2-16,11.7-29.2,13.6c4.8,2.5,8.5,4.9,11,7.3c5.3,5.2,10.3,11.7,15.1,19.6l23.9,40H319l-18.7-30.5
		c-5.5-8.8-10-15.5-13.5-20.2s-6.7-7.9-9.5-9.8s-5.6-3.2-8.5-3.9c-2.1-0.5-5.6-0.7-10.4-0.7h-21.7v65H218z M236.7,95H276
		c8.4,0,14.9-0.9,19.6-2.8s8.3-4.8,10.8-8.9s3.7-8.5,3.7-13.3c0-7-2.4-12.8-7.1-17.3c-4.8-4.5-12.3-6.8-22.5-6.8h-43.8V95z"/>
	<path d="M799.5,31H818v84.1c0,14.6-1.6,26.2-4.9,34.8c-3.3,8.6-9.2,15.6-17.7,21s-19.7,8.1-33.6,8.1c-13.5,0-24.5-2.3-33-7
		c-8.6-4.7-14.7-11.5-18.3-20.4c-3.7-8.9-5.5-21.1-5.5-36.5V31h19.5v84c0,12.6,1.2,21.9,3.5,27.9s6.3,10.6,12,13.8
		s12.6,4.9,20.7,4.9c14,0,24-3.2,29.9-9.6c5.9-6.4,8.9-18.8,8.9-37L799.5,31L799.5,31z"/>
	<path d="M980,125.9l19.5,4.9c-4.1,16-11.5,28.2-22.1,36.7c-10.6,8.4-23.6,12.6-39,12.6c-15.9,0-28.8-3.2-38.8-9.7
		s-17.5-15.8-22.7-28.1s-7.8-25.4-7.8-39.5c0-15.4,2.9-28.8,8.8-40.2c5.9-11.4,14.2-20.1,25-26.1c10.8-5.9,22.7-8.9,35.8-8.9
		c14.8,0,27.2,3.8,37.2,11.3c10.1,7.5,17.1,18.1,21,31.7l-19.2,4.5c-3.4-10.7-8.4-18.5-14.9-23.4s-14.7-7.3-24.5-7.3
		c-11.3,0-20.8,2.7-28.4,8.1c-7.6,5.4-13,12.7-16,21.9c-3.1,9.2-4.6,18.6-4.6,28.3c0,12.5,1.8,23.5,5.5,32.8c3.7,9.4,9.3,16.3,17,21
		c7.7,4.6,16.1,6.9,25,6.9c10.9,0,20.2-3.2,27.8-9.5C972.2,147.6,977.4,138.3,980,125.9z"/>
	<path d="M1214,177V30h20v147H1214z"/>
	<path d="M1472,177V30h18.3l78.7,115.4V30h19v147h-18.3L1491,61.5V177H1472z"/>
</g>
</svg>
