<?xml version="1.0" encoding="utf-8"?>
<!-- Generator: Adobe Illustrator 22.0.1, SVG Export Plug-In . SVG Version: 6.00 Build 0)  -->
<svg version="1.1" id="Layer_1" xmlns="http://www.w3.org/2000/svg" xmlns:xlink="http://www.w3.org/1999/xlink" x="0px" y="0px"
	 viewBox="0 0 1058 207" style="enable-background:new 0 0 1058 207;" xml:space="preserve">
<style type="text/css">
	.st0{fill:none;stroke:#000000;stroke-width:10;stroke-miterlimit:10;}
	.st1{stroke:#000000;stroke-width:2;stroke-miterlimit:10;}
</style>
<rect x="5" y="5" class="st0" width="1048" height="197"/>
<g>
	<path class="st1" d="M300,162v14H198v-14H300z"/>
	<path d="M62,153.6c8.5,5.2,21,9.5,34.2,9.5c19.5,0,30.9-10.2,30.9-24.9c0-13.7-7.9-21.5-27.8-29.1c-24.1-8.5-39-20.8-39-41.4
		c0-22.8,19-39.7,47.7-39.7c15.1,0,26.1,3.5,32.6,7.2l-5.3,15.4c-4.8-2.6-14.7-6.9-28-6.9c-20.1,0-27.8,11.9-27.8,21.9
		c0,13.7,9,20.4,29.3,28.2c25,9.5,37.7,21.5,37.7,43c0,22.6-16.9,42.1-51.7,42.1c-14.2,0-29.8-4.1-37.7-9.3L62,153.6z"/>
	<path d="M552.6,30v147.6h-19.1V30H552.6z"/>
	<path d="M640.7,131.2l-15.3,46.4h-19.7L655.8,30h23l50.4,147.6h-20.4L693,131.2L640.7,131.2L640.7,131.2z M689.1,116.3l-14.5-42.5
		c-3.3-9.6-5.5-18.4-7.7-26.9h-0.4c-2.2,8.8-4.6,17.7-7.4,26.7l-14.5,42.7H689.1z"/>
	<path d="M777.9,30H797v131.6h63v16h-82.1V30z"/>
	<path d="M914.6,153.4c8.5,5.3,21,9.6,34.2,9.6c19.5,0,30.9-10.3,30.9-25.2c0-13.8-7.9-21.7-27.8-29.3c-24.1-8.5-39-21-39-41.8
		c0-23,19.1-40.1,47.7-40.1c15.1,0,26.1,3.5,32.6,7.2L988,49.4c-4.8-2.6-14.7-7-28-7c-20.1,0-27.8,12-27.8,22.1
		c0,13.8,9,20.6,29.3,28.5c25,9.6,37.7,21.7,37.7,43.4c0,22.8-16.9,42.5-51.7,42.5c-14.2,0-29.8-4.2-37.7-9.4L914.6,153.4z"/>
	<path d="M459,124.9l19.5,4.9c-4.1,16-11.5,28.2-22.1,36.7c-10.6,8.4-23.6,12.6-39,12.6c-15.9,0-28.8-3.2-38.8-9.7
		s-17.5-15.8-22.7-28.1s-7.8-25.4-7.8-39.5c0-15.4,2.9-28.8,8.8-40.2s14.2-20.1,25-26.1c10.8-5.9,22.7-8.9,35.8-8.9
		c14.8,0,27.2,3.8,37.2,11.3c10.1,7.5,17.1,18.1,21,31.7l-19.2,4.5c-3.4-10.7-8.4-18.5-14.9-23.4s-14.7-7.3-24.5-7.3
		c-11.3,0-20.8,2.7-28.4,8.1s-13,12.7-16,21.9c-3.1,9.2-4.6,18.6-4.6,28.3c0,12.5,1.8,23.5,5.5,32.8c3.7,9.4,9.3,16.3,17,21
		c7.7,4.6,16.1,6.9,25,6.9c10.9,0,20.2-3.2,27.8-9.5C451.2,146.6,456.4,137.3,459,124.9z"/>
</g>
</svg>
