<?xml version="1.0" encoding="utf-8"?>
<!-- Generator: Adobe Illustrator 22.0.1, SVG Export Plug-In . SVG Version: 6.00 Build 0)  -->
<svg version="1.1" id="Layer_1" xmlns="http://www.w3.org/2000/svg" xmlns:xlink="http://www.w3.org/1999/xlink" x="0px" y="0px"
	 viewBox="0 0 943 207" style="enable-background:new 0 0 943 207;" xml:space="preserve">
<style type="text/css">
	.st0{fill:none;stroke:#000000;stroke-width:10;stroke-miterlimit:10;}
	.st1{stroke:#000000;stroke-width:2;stroke-miterlimit:10;}
</style>
<rect x="5" y="5" class="st0" width="933" height="197"/>
<g>
	<path d="M580.4,105.1c0-24.6,6.6-43.8,19.8-57.8c13.2-13.9,30.3-20.9,51.1-20.9c13.7,0,26,3.3,37,9.8s19.4,15.7,25.1,27.3
		c5.8,11.7,8.6,24.9,8.6,39.8c0,15-3,28.5-9.1,40.3c-6.1,11.9-14.7,20.8-25.8,26.9c-11.1,6.1-23.1,9.1-36,9.1
		c-13.9,0-26.4-3.4-37.4-10.1c-11-6.7-19.3-15.9-25-27.6C583.2,130.4,580.4,118.1,580.4,105.1z M600.6,105.4
		c0,17.9,4.8,31.9,14.4,42.2c9.6,10.3,21.6,15.4,36.1,15.4c14.8,0,26.9-5.2,36.4-15.6c9.5-10.4,14.3-25.1,14.3-44.2
		c0-12.1-2-22.6-6.1-31.6s-10-16-17.9-20.9c-7.9-5-16.7-7.4-26.4-7.4c-13.9,0-25.8,4.8-35.8,14.3S600.6,83.1,600.6,105.4z"/>
	<path class="st1" d="M304,162v14H202v-14H304z"/>
	<path d="M92.8,176.8l-48-146.9h20.5l22.9,72.4c6.3,19.8,11.8,37.7,15.7,54.9h0.4c4.1-17,10.2-35.5,16.8-54.7L146,29.8h20.3
		l-52.5,146.9h-21V176.8z"/>
	<path d="M358.7,153.7c8.5,5.2,20.9,9.6,34,9.6c19.4,0,30.7-10.2,30.7-25.1c0-13.7-7.8-21.6-27.7-29.2c-24-8.5-38.8-20.9-38.8-41.6
		c0-22.9,19-39.9,47.5-39.9c15,0,25.9,3.5,32.5,7.2l-5.2,15.5c-4.8-2.6-14.6-7-27.9-7c-20.1,0-27.7,12-27.7,22
		c0,13.7,8.9,20.5,29.2,28.3c24.9,9.6,37.5,21.6,37.5,43.2c0,22.7-16.8,42.3-51.4,42.3c-14.2,0-29.6-4.1-37.5-9.4L358.7,153.7z"/>
	<path d="M521.8,29.8v146.9h-19V29.8H521.8z"/>
	<path d="M773.1,176.8v-147h20.7l47.1,74.3c10.9,17.2,19.4,32.7,26.4,47.7l0.4-0.2c-1.7-19.6-2.2-37.5-2.2-60.4V29.8h17.9v146.9
		h-19.2l-46.7-74.6C807.3,85.7,797.4,69,790,53l-0.7,0.2c1.1,18.5,1.5,36.2,1.5,60.6v62.8h-17.7V176.8z"/>
</g>
</svg>
